<svg width="33" height="33" viewBox="0 0 33 33" fill="none" xmlns="http://www.w3.org/2000/svg">
<circle cx="16.5" cy="16.5" r="16.5" fill="#FF8A00"/>
<path d="M16.7107 10.5912C17.897 10.5912 18.9377 10.823 19.8328 11.2868C20.7386 11.7505 21.4342 12.4137 21.9195 13.2765C22.4156 14.1284 22.6636 15.1206 22.6636 16.2529C22.6636 17.3853 22.4156 18.3775 21.9195 19.2294C21.4342 20.0706 20.7386 20.723 19.8328 21.1868C18.9377 21.6505 17.897 21.8824 16.7107 21.8824H12.7636V10.5912H16.7107ZM16.6298 19.9574C17.8161 19.9574 18.7328 19.6338 19.3798 18.9868C20.0269 18.3397 20.3504 17.4284 20.3504 16.2529C20.3504 15.0775 20.0269 14.1608 19.3798 13.5029C18.7328 12.8343 17.8161 12.5 16.6298 12.5H15.0283V19.9574H16.6298Z" fill="white"/>
</svg>
